<?xml version="1.0" encoding="UTF-8" standalone="no"?>
<svg
   id="Layer_1"
   data-name="Layer 1"
   viewBox="0 0 24 24"
   version="1.1"
   sodipodi:docname="bin-dark.svg"
   inkscape:version="1.3.2 (091e20e, 2023-11-25, custom)"
   xmlns:inkscape="http://www.inkscape.org/namespaces/inkscape"
   xmlns:sodipodi="http://sodipodi.sourceforge.net/DTD/sodipodi-0.dtd"
   xmlns="http://www.w3.org/2000/svg"
   xmlns:svg="http://www.w3.org/2000/svg">
  <defs
     id="defs1" />
  <sodipodi:namedview
     id="namedview1"
     pagecolor="#ffffff"
     bordercolor="#000000"
     borderopacity="0.25"
     inkscape:showpageshadow="2"
     inkscape:pageopacity="0.0"
     inkscape:pagecheckerboard="0"
     inkscape:deskcolor="#d1d1d1"
     inkscape:zoom="33.875"
     inkscape:cx="12"
     inkscape:cy="19.084871"
     inkscape:window-width="1920"
     inkscape:window-height="1009"
     inkscape:window-x="-8"
     inkscape:window-y="-8"
     inkscape:window-maximized="1"
     inkscape:current-layer="Layer_1" />
  <path
     d="M 7.8267579,17.071715 11.256618,13.927676 7.8267579,10.783637 8.5701403,10.102204 12,13.246243 l 3.429861,-3.144039 0.74338,0.681433 -3.429859,3.144039 3.429859,3.144039 -0.74338,0.681432 L 12,14.609109 8.5701403,17.753147 Z M 23.566052,5.2531368 H 21.934187 L 20.006863,21.418622 c -0.147205,1.224074 -1.270164,2.147429 -2.612877,2.147429 H 6.5692133 c -1.3469193,0 -2.4709291,-0.925284 -2.6139275,-2.15225 L 2.0647621,5.2531368 H 0.43394885 V 4.2892992 H 6.742704 V 2.8435428 c 0,-1.3291322 1.1797372,-2.40959409 2.6286481,-2.40959409 h 5.2572959 c 1.448911,0 2.628649,1.08046189 2.628649,2.40959409 v 1.4457564 h 6.308755 z M 7.7941628,4.2892992 H 16.205837 V 2.8435428 c 0,-0.7970937 -0.707633,-1.4457565 -1.577189,-1.4457565 H 9.3713521 c -0.8695575,0 -1.5771893,0.6486628 -1.5771893,1.4457565 z M 20.876418,5.2531368 H 3.1214785 L 5.0004361,21.309708 c 0.086219,0.737336 0.760205,1.292506 1.5687772,1.292506 H 17.392935 c 0.806468,0 1.480454,-0.553242 1.567724,-1.288651 L 20.875367,5.2531368 Z"
     id="path1"
     style="fill:#a7a7a7;fill-opacity:1;stroke:#a7a7a7;stroke-width:0.867898;stroke-dasharray:none;stroke-opacity:1" />
</svg>
