<?xml version="1.0" encoding="UTF-8" standalone="no"?>
<svg
   id="Layer_1"
   data-name="Layer 1"
   viewBox="0 0 24 24"
   version="1.1"
   sodipodi:docname="bin.svg"
   inkscape:version="1.3.2 (091e20e, 2023-11-25, custom)"
   xmlns:inkscape="http://www.inkscape.org/namespaces/inkscape"
   xmlns:sodipodi="http://sodipodi.sourceforge.net/DTD/sodipodi-0.dtd"
   xmlns="http://www.w3.org/2000/svg"
   xmlns:svg="http://www.w3.org/2000/svg">
  <defs
     id="defs1" />
  <sodipodi:namedview
     id="namedview1"
     pagecolor="#ffffff"
     bordercolor="#000000"
     borderopacity="0.25"
     inkscape:showpageshadow="2"
     inkscape:pageopacity="0.0"
     inkscape:pagecheckerboard="0"
     inkscape:deskcolor="#d1d1d1"
     inkscape:zoom="33.875"
     inkscape:cx="12"
     inkscape:cy="16.723247"
     inkscape:window-width="1920"
     inkscape:window-height="1009"
     inkscape:window-x="-8"
     inkscape:window-y="-8"
     inkscape:window-maximized="1"
     inkscape:current-layer="Layer_1" />
  <path
     d="M 7.802549,17.101135 11.252305,13.938859 7.802549,10.776581 8.5502437,10.091195 12,13.253472 l 3.449757,-3.162277 0.747693,0.685386 -3.449755,3.162278 3.449755,3.162276 -0.747693,0.685386 L 12,14.624245 8.5502437,17.786521 Z M 23.633146,5.2139984 H 21.991815 L 20.053309,21.473259 c -0.148057,1.231176 -1.277531,2.159887 -2.628033,2.159887 H 6.5377093 c -1.3547328,0 -2.4852629,-0.930652 -2.629091,-2.164736 L 2.0071278,5.2139984 H 0.36685428 V 4.2445697 H 6.7122065 V 2.7904264 c 0,-1.3368425 1.1865812,-2.42357216 2.6438959,-2.42357216 h 5.2877956 c 1.457315,0 2.643896,1.08672966 2.643896,2.42357216 v 1.4541433 h 6.345352 z M 7.7697655,4.2445697 H 16.230234 V 2.7904264 c 0,-0.8017176 -0.711737,-1.4541433 -1.586336,-1.4541433 H 9.3561024 c -0.8746005,0 -1.5863369,0.6524257 -1.5863369,1.4541433 z M 20.92791,5.2139984 H 3.0699743 L 4.9598317,21.363713 c 0.086719,0.741614 0.7646148,1.300004 1.5778776,1.300004 H 17.424219 c 0.811147,0 1.489043,-0.556451 1.576819,-1.296126 L 20.926853,5.2139984 Z"
     id="path1"
     style="fill:#575757;fill-opacity:1;stroke:#575757;stroke-width:0.733709;stroke-dasharray:none;stroke-opacity:1" />
</svg>
