<?xml version="1.0" encoding="UTF-8" standalone="no"?>
<svg
   id="Outline"
   viewBox="0 0 24 24"
   width="16"
   height="16"
   version="1.1"
   sodipodi:docname="eye-crossed_dark.svg"
   inkscape:version="1.3.2 (091e20e, 2023-11-25, custom)"
   xmlns:inkscape="http://www.inkscape.org/namespaces/inkscape"
   xmlns:sodipodi="http://sodipodi.sourceforge.net/DTD/sodipodi-0.dtd"
   xmlns="http://www.w3.org/2000/svg"
   xmlns:svg="http://www.w3.org/2000/svg">
  <defs
     id="defs1" />
  <sodipodi:namedview
     id="namedview1"
     pagecolor="#ffffff"
     bordercolor="#000000"
     borderopacity="0.25"
     inkscape:showpageshadow="2"
     inkscape:pageopacity="0.0"
     inkscape:pagecheckerboard="0"
     inkscape:deskcolor="#d1d1d1"
     inkscape:zoom="50.8125"
     inkscape:cx="8"
     inkscape:cy="8"
     inkscape:window-width="1920"
     inkscape:window-height="1009"
     inkscape:window-x="-8"
     inkscape:window-y="-8"
     inkscape:window-maximized="1"
     inkscape:current-layer="Outline" />
  <path
     d="M23.271,9.419A15.866,15.866,0,0,0,19.9,5.51l2.8-2.8a1,1,0,0,0-1.414-1.414L18.241,4.345A12.054,12.054,0,0,0,12,2.655C5.809,2.655,2.281,6.893.729,9.419a4.908,4.908,0,0,0,0,5.162A15.866,15.866,0,0,0,4.1,18.49l-2.8,2.8a1,1,0,1,0,1.414,1.414l3.052-3.052A12.054,12.054,0,0,0,12,21.345c6.191,0,9.719-4.238,11.271-6.764A4.908,4.908,0,0,0,23.271,9.419ZM2.433,13.534a2.918,2.918,0,0,1,0-3.068C3.767,8.3,6.782,4.655,12,4.655A10.1,10.1,0,0,1,16.766,5.82L14.753,7.833a4.992,4.992,0,0,0-6.92,6.92l-2.31,2.31A13.723,13.723,0,0,1,2.433,13.534ZM15,12a3,3,0,0,1-3,3,2.951,2.951,0,0,1-1.285-.3L14.7,10.715A2.951,2.951,0,0,1,15,12ZM9,12a3,3,0,0,1,3-3,2.951,2.951,0,0,1,1.285.3L9.3,13.285A2.951,2.951,0,0,1,9,12Zm12.567,1.534C20.233,15.7,17.218,19.345,12,19.345A10.1,10.1,0,0,1,7.234,18.18l2.013-2.013a4.992,4.992,0,0,0,6.92-6.92l2.31-2.31a13.723,13.723,0,0,1,3.09,3.529A2.918,2.918,0,0,1,21.567,13.534Z"
     id="path1"
     style="fill:#a7a7a7;fill-opacity:1" />
</svg>
